<svg width="480" height="480" viewBox="0 0 480 480" fill="none" xmlns="http://www.w3.org/2000/svg">
<g clip-path="url(#clip0_2_8)">
<path d="M466.154 415.657L405.886 368.64L319.198 238.168L348.334 218.938C348.334 218.938 357.5 213.187 351.361 203.94C343.46 192.039 235.527 29.602 235.527 29.602C226.377 15.834 207.699 12.043 193.889 21.16L170.443 36.635V29.991C170.443 13.454 156.959 0 140.384 0H80.207C63.632 0 50.147 13.454 50.147 29.991V232.777C21.188 241.356 0 268.204 0 299.907V449.82C0 466.361 13.458 479.818 30 479.818H190.59C207.132 479.818 220.59 466.361 220.59 449.82V299.906C220.59 268.203 199.402 241.355 170.443 232.776V148.834L251.535 270.883L252.921 272.548C258.86 278.391 265.353 273.708 265.355 273.706C265.359 273.704 302.507 249.186 302.507 249.186L389.227 379.706L409.135 453.354C412.182 464.632 420.211 473.477 431.159 477.619C435.371 479.213 439.72 480 444.034 480C450.964 480 457.805 477.968 463.839 473.986C473.628 467.525 479.508 457.11 479.971 445.41C480.434 433.714 475.398 422.869 466.154 415.657ZM70.147 29.991C70.147 24.48 74.66 19.998 80.207 19.998H140.384C145.931 19.998 150.444 24.481 150.444 29.991V49.835L143.716 54.275C137.011 58.701 132.439 65.468 130.841 73.329C129.245 81.181 130.809 89.183 135.246 95.861L150.506 118.828C150.464 119.198 150.443 119.575 150.443 119.956V229.911H70.147V29.991ZM200.59 299.907V449.821C200.59 455.334 196.104 459.82 190.59 459.82H30C24.486 459.82 20 455.334 20 449.821V299.907C20 272.338 42.43 249.91 70 249.91H150.59C178.161 249.91 200.59 272.338 200.59 299.907ZM262.676 251.512L151.904 84.793C150.43 82.574 149.91 79.917 150.439 77.312C150.971 74.696 152.496 72.442 154.733 70.966L204.907 37.852C206.618 36.723 208.55 36.183 210.462 36.183C213.728 36.183 216.935 37.761 218.869 40.671L329.606 207.338L262.676 251.512ZM459.986 444.62C459.781 449.806 457.17 454.426 452.821 457.296C448.452 460.179 443.134 460.767 438.236 458.915C433.365 457.071 429.795 453.143 428.441 448.136L415.927 401.84L453.852 431.426C457.956 434.628 460.192 439.436 459.986 444.62Z" fill="white"/>
<path d="M130.383 279.895C130.383 285.417 134.861 289.894 140.383 289.894C151.46 289.894 160.472 298.861 160.472 309.883V429.976C160.472 435.498 164.95 439.975 170.472 439.975C175.994 439.975 180.472 435.498 180.472 429.976V309.883C180.472 287.833 162.488 269.895 140.383 269.895C134.861 269.895 130.383 274.372 130.383 279.895Z" fill="white"/>
</g>
<defs>
<clipPath id="clip0_2_8">
<rect width="480" height="480" fill="white"/>
</clipPath>
</defs>
</svg>
